# AST/ASF file generated using VICON BodyLanguage
# -----------------------------------------------
:version 1.10
:name VICON
:units
  mass 1.0
  length 0.45
  angle deg
:documentation
   .ast/.asf automatically generated from VICON data using
   VICON BodyBuilder and BodyLanguage model FoxedUp or BRILLIANT.MOD
:root
   order TX TY TZ RX RY RZ
   axis XYZ
   position 0 0 0  
   orientation 0 0 0 
:bonedata
  begin
     id 1 
     name lhipjoint
     direction 0.440178 -0.822639 0.359871 
     length 2.53113 
     axis 0 0 0  XYZ
  end
  begin
     id 2 
     name lfemur
     direction 0.34202 -0.939693 0  
     length 7.88132  
     axis 0 0 20  XYZ
    dof rx ry rz
    limits (-160.0 20.0)
           (-70.0 70.0)
           (-60.0 70.0)
  end
  begin
     id 3 
     name ltibia
     direction 0.34202 -0.939693 0   
     length 8.43783   
     axis 0 0 20   XYZ
    dof rx
    limits (-10.0 170.0)
  end
  begin
     id 4 
     name lfoot
     direction 0.0886351 -0.243523 0.965837   
     length 2.63414   
     axis -90 7.62852e-016 20   XYZ
    dof rx rz
    limits (-45.0 90.0)
           (-70.0 20.0)
  end
  begin
     id 5 
     name ltoes
     direction 1.53703e-011 -4.21717e-011 1   
     length 1.31427   
     axis -90 7.62852e-016 20   XYZ
    dof rx
    limits (-90.0 20.0)
  end
  begin
     id 6 
     name rhipjoint
     direction -0.399779 -0.839773 0.367367   
     length 2.47948  
     axis 0 0 0  XYZ 
  end
  begin
     id 7 
     name rfemur
     direction -0.34202 -0.939693 0   
     length 7.74806   
     axis 0 0 -20   XYZ
    dof rx ry rz
    limits (-160.0 20.0)
           (-70.0 70.0)
           (-70.0 60.0)
  end
  begin
     id 8 
     name rtibia
     direction -0.34202 -0.939693 0   
     length 8.74432   
     axis 0 0 -20   XYZ
    dof rx
    limits (-10.0 170.0)
 end
 begin
     id 9 
     name rfoot
     direction -0.108514 -0.298139 0.948334   
     length 2.66102  
     axis -90 -7.62852e-016 -20   XYZ
    dof rx rz
    limits (-45.0 90.0)
           (-20.0 70.0)
  end
  begin
     id 10 
     name rtoes
     direction -1.53392e-011 -4.22077e-011 1   
     length 1.31983   
     axis -90 -7.62852e-016 -20   XYZ
    dof rx
    limits (-90.0 20.0)
  end
  begin
     id 11 
     name lowerback
     direction 0.0113257 0.999866 0.0118602   
     length 2.58694   
     axis 0 0 0   XYZ
    dof rx ry rz
    limits (-20.0 45.0)
           (-30.0 30.0)
           (-30.0 30.0)
  end
  begin
     id 12 
     name upperback
     direction -0.0164747 0.995193 -0.0965375   
     length 2.52368   
     axis 0 0 0   XYZ
    dof rx ry rz
    limits (-20.0 45.0)
           (-30.0 30.0)
           (-30.0 30.0)
  end
  begin
     id 13 
     name thorax
     direction -0.0194301 0.99433 -0.104552   
     length 2.56099   
     axis 0 0 0   XYZ
    dof rx ry rz
    limits (-20.0 45.0)
           (-30.0 30.0)
           (-30.0 30.0)
  end
  begin
     id 14 
     name lowerneck
     direction 0.0148543 0.995587 -0.092657   
     length 1.71582   
     axis 0 0 0   XYZ
    dof rx ry rz
    limits (-20.0 45.0)
           (-30.0 30.0)
           (-30.0 30.0)
  end
  begin
     id 15 
     name upperneck
     direction -0.0135467 0.993656 -0.111639   
     length 1.68937   
     axis 0 0 0   XYZ
    dof rx ry rz
    limits (-20.0 45.0)
           (-30.0 30.0)
           (-30.0 30.0)
  end
  begin
     id 16
     name head
     direction -0.00615349 0.999547 -0.029448  
     length 1.7462  
     axis 0 0 0   XYZ
    dof rx ry rz
    limits (-20.0 45.0)
           (-30.0 30.0)
           (-30.0 30.0)
  end
  begin
     id 17 
     name lclavicle
     direction 0.988267 0.149885 0.0293713  
     length 4.47222  
     axis 0 0 0   XYZ
    dof ry rz
    limits (-20.0 10.0)
           (0.0 20.0)
  end
  begin
     id 18 
     name lhumerus
     direction 1 -4.48986e-011 -1.14833e-027   
     length 5.37148   
     axis 180 -30 -90   XYZ
    dof rx ry rz
    limits (-60.0 90.0)
           (-90.0 90.0)
           (-90.0 90.0)
  end
  begin
     id 19
     name lradius
     direction 0.999998 0.00170963 -0.000987055   
     length 3.94212   
     axis 180 -30 -90   XYZ
    dof rx
    limits (-10.0 170.0)
  end
  begin
     id 20
     name lwrist
     direction 0.999998 7.53149e-005 -0.00194706   
     length 1.97106   
     axis 4.65056e-015 90 90   XYZ
    dof ry
    limits (-180.0 0.0)
 end
  begin
     id 21 
     name lhand
     direction 1 -4.48973e-011 -1.31746e-026   
     length 1.17917   
     axis 8.4065e-015 90 90   XYZ
    dof rx rz
    limits (-90.0 90.0)
           (-45.0 45.0)
  end
  begin
     id 22 
     name lfingers
     direction 1 -4.49107e-011 -2.63492e-026   
     length 0.950679   
     axis 1.6813e-014 90 90   XYZ
    dof rx
    limits (0.0 90.0)
  end
  begin
     id 23
     name lthumb
     direction 0.707107 -6.35048e-011 0.707107   
     length 1.36499   
     axis -90 45 2.85299e-015   XYZ
    dof rx rz
    limits (-45.0 45.0)
           (-45.0 45.0)
  end
  begin
     id 24 
     name rclavicle
     direction -0.996699 0.0642895 -0.0495725   
     length 4.62611  
     axis 0 0 0   XYZ 
    dof ry rz
    limits (-10.0 20.0)
           (-20.0 0.0)
  end
  begin
     id 25 
     name rhumerus
     direction -1 -4.48919e-011 -2.41059e-027  
     length 5.4981   
     axis 180 30 90   XYZ
    dof rx ry rz
    limits (-90.0 60.0)
           (-90.0 90.0)
           (-90.0 90.0)
  end
  begin
     id 26 
     name rradius
     direction -0.999999 0.00118101 -0.000681858   
     length 3.48381   
     axis 180 30 90   XYZ
    dof rx
    limits (-10.0 170.0)
  end
  begin
     id 27 
     name rwrist
     direction -0.999999 0.000321823 -0.00132288   
     length 1.7419   
     axis 4.65056e-015 -90 -90   XYZ
    dof ry
    limits (-180.0 0.0)
  end
  begin
     id 28
     name rhand
     direction -1 -4.49022e-011 -1.31746e-026   
     length 1.34932   
     axis 8.4065e-015 -90 -90   XYZ
    dof rx rz
    limits (-90.0 90.0)
           (-45.0 45.0)
  end
  begin
     id 29
     name rfingers
     direction -1 -4.49178e-011 -2.63492e-026   
     length 1.08785   
     axis 1.6813e-014 -90 -90   XYZ
    dof rx
    limits (0.0 90.0)
  end
  begin
     id 30
     name rthumb
     direction -0.707107 -6.34713e-011 0.707107   
     length 1.56195   
     axis -90 -45 -2.85299e-015   XYZ
    dof rx rz
    limits (-45.0 45.0)
           (-45.0 45.0)
  end
:hierarchy
  begin
    root lhipjoint rhipjoint lowerback
    lhipjoint lfemur
    lfemur ltibia
    ltibia lfoot
    lfoot ltoes
    rhipjoint rfemur
    rfemur rtibia
    rtibia rfoot
    rfoot rtoes
    lowerback upperback
    upperback thorax
    thorax lowerneck lclavicle rclavicle
    lowerneck upperneck
    upperneck head
    lclavicle lhumerus
    lhumerus lradius
    lradius lwrist
    lwrist lhand lthumb
    lhand lfingers
    rclavicle rhumerus
    rhumerus rradius
    rradius rwrist
    rwrist rhand rthumb
    rhand rfingers
  end

#!OML:ASF X:\für Bonn\!DataBase\2005_08_10_Bjorn_Final\c3d\bjorn.ASF
:FULLY-SPECIFIED
:DEGREES
1
root -2.33869 18.6949 8.93366 -178.604 17.8154 179.184
lowerback 4.62866 1.34599 -6.80944
upperback 12.3657 4.0002 -3.18647
thorax 10.5516 2.2265 0.664533
lowerneck -9.95416 1.44399 1.71834
upperneck -5.16192 2.20506 -6.57459
head 0.165993 1.25433 -2.30427
rclavicle 3.26007e-014 1.03368e-014
rhumerus -13.7688 9.61769 -94.6506
rradius 73.2991
rwrist 17.682
rhand -29.655 6.07505
rfingers 7.12502
rthumb -2.98427 -23.8838
lclavicle 3.26007e-014 1.03368e-014
lhumerus -9.35909 -34.7454 93.0098
lradius 45.0439
lwrist 32.7194
lhand -29.239 -0.0134742
lfingers 7.12502
lthumb -2.58251 29.9506
rfemur 505.583 -173.021 -529.568
rtibia 33.4071
rfoot -13.7583 19.9936
rtoes -19.003
lfemur 349.667 4.43563 342.442
ltibia 36.3855
lfoot -21.4115 0.962529
ltoes -20.7551
2
root -2.36604 18.7231 9.02971 -178.106 18.058 179.516
lowerback 4.75853 1.43861 -6.89823
upperback 12.4203 4.14792 -3.23717
thorax 10.5341 2.3029 0.659922
lowerneck -10.2957 1.40921 1.69028
upperneck -5.48555 2.18485 -6.35223
head 0.114582 1.26262 -2.22589
rclavicle -1.27222e-014 -1.19271e-014
rhumerus -13.6979 10.0287 -94.8472
rradius 73.8257
rwrist 17.9327
rhand -29.9796 6.16665
rfingers 7.12502
rthumb -3.29772 -23.7876
lclavicle -1.27222e-014 -1.19271e-014
lhumerus -9.03347 -34.4343 92.8723
lradius 45.0705
lwrist 34.9184
lhand -29.4445 0.791608
lfingers 7.12502
lthumb -2.78094 30.7532
rfemur 505.26 -172.716 -528.974
rtibia 33.6226
rfoot -13.8038 19.996
rtoes -19.7277
lfemur 348.843 4.66764 342.749
ltibia 36.4555
lfoot -21.0707 0.991267
ltoes -20.8068
3
root -2.3925 18.7497 9.12381 -177.671 18.2927 179.766
lowerback 4.916 1.54369 -7.04702
upperback 12.4715 4.31677 -3.31297
thorax 10.4962 2.3882 0.660097
lowerneck -10.6066 1.36665 1.71598
upperneck -5.77936 2.1491 -6.15566
head 0.0680051 1.26127 -2.16661
rclavicle -3.26007e-014 -7.15625e-015
rhumerus -13.484 10.3877 -95.0434
rradius 74.2504
rwrist 18.1794
rhand -30.1804 6.47357
rfingers 7.12502
rthumb -3.49165 -23.4776
lclavicle -3.26007e-014 -7.15625e-015
lhumerus -8.74174 -34.1756 92.7554
lradius 45.125
lwrist 37.1245
lhand -29.7146 1.71782
lfingers 7.12502
lthumb -3.04188 31.6759
rfemur 505.01 -172.471 -528.499
rtibia 33.8587
rfoot -13.726 20.2082
rtoes -20.3063
lfemur 348.1 4.88776 342.969
ltibia 36.4823
lfoot -20.7144 1.0552
ltoes -20.9795
4
root -2.41705 18.7748 9.21516 -177.277 18.5501 179.962
lowerback 5.04625 1.64398 -7.26656
upperback 12.5263 4.48431 -3.3942
thorax 10.4768 2.46606 0.69402
lowerneck -10.8753 1.33076 1.72578
upperneck -6.08441 2.12476 -5.96959
head 0.011093 1.26695 -2.10802
rclavicle -2.3059e-014 3.4191e-014
rhumerus -13.1869 10.8384 -95.2264
rradius 74.6906
rwrist 18.3895
rhand -30.4038 6.7246
rfingers 7.12502
rthumb -3.70745 -23.2229
lclavicle -2.3059e-014 3.4191e-014
lhumerus -8.42519 -33.8761 92.6396
lradius 45.1622
lwrist 39.242
lhand -30.0321 2.75153
lfingers 7.12502
lthumb -3.34845 32.705
rfemur 504.834 -172.355 -528.128
rtibia 34.0986
rfoot -13.462 20.5729
rtoes -19.9847
lfemur 347.41 5.13405 343.13
ltibia 36.4845
lfoot -20.3742 1.12016
ltoes -21.0258
5
root -2.4403 18.8005 9.3044 -176.895 18.7956 180.152
lowerback 5.16772 1.74727 -7.48246
upperback 12.5823 4.65698 -3.47497
thorax 10.4637 2.54672 0.726453
lowerneck -11.1088 1.30018 1.77188
upperneck -6.41567 2.10504 -5.79556
head -0.0592289 1.27584 -2.06028
rclavicle -6.04305e-014 1.98785e-014
rhumerus -12.8275 11.2918 -95.3844
rradius 75.1151
rwrist 18.7397
rhand -30.626 7.01555
rfingers 7.12502
rthumb -3.92194 -22.9281
lclavicle -6.04305e-014 1.98785e-014
lhumerus -8.09956 -33.702 92.5114
lradius 45.2005
lwrist 41.4232
lhand -30.5419 3.78298
lfingers 7.12502
lthumb -3.84074 33.7281
rfemur 504.714 -172.317 -527.796
rtibia 34.3455
rfoot -13.2246 20.9096
rtoes -19.8459
lfemur 346.749 5.33046 343.291
ltibia 36.4642
lfoot -20.0478 1.14717
ltoes -20.8148
6
root -2.46181 18.8256 9.39198 -176.48 19.0329 180.351
lowerback 5.22663 1.83951 -7.68578
upperback 12.6214 4.81192 -3.5534
thorax 10.4684 2.61607 0.756347
lowerneck -11.2934 1.26962 1.80346
upperneck -6.74469 2.08656 -5.60108
head -0.137441 1.28544 -2.00365
rclavicle -2.46493e-014 -1.59028e-014
rhumerus -12.4308 11.7871 -95.5432
rradius 75.7153
rwrist 19.2054
rhand -30.4893 6.91754
rfingers 7.12502
rthumb -3.79002 -23.0285
lclavicle -2.46493e-014 -1.59028e-014
lhumerus -7.74848 -33.4457 92.3952
lradius 45.1779
lwrist 43.5447
lhand -31.1081 4.61117
lfingers 7.12502
lthumb -4.38748 34.5457
rfemur 504.602 -172.357 -527.489
rtibia 34.5918
rfoot -12.8274 21.1695
rtoes -19.0637
lfemur 346.07 5.53837 343.457
ltibia 36.4373
lfoot -19.6916 1.23322
ltoes -20.8523
7
root -2.48244 18.8498 9.47851 -176.087 19.2421 180.554
lowerback 5.32098 1.93638 -7.85274
upperback 12.6283 4.96226 -3.64955
thorax 10.4171 2.68874 0.743385
lowerneck -11.3642 1.24246 1.90132
upperneck -7.08251 2.06113 -5.42037
head -0.236313 1.28923 -1.96458
rclavicle -3.33958e-014 -9.54166e-015
rhumerus -12.0714 12.2615 -95.7164
rradius 76.4969
rwrist 19.7804
rhand -30.3736 6.72575
rfingers 7.12502
rthumb -3.67825 -23.2223
lclavicle -3.33958e-014 -9.54166e-015
lhumerus -7.48108 -33.2124 92.2943
lradius 45.2228
lwrist 45.593
lhand -31.6563 5.4731
lfingers 7.12502
lthumb -4.9169 35.396
rfemur 504.555 -172.424 -527.198
rtibia 34.8515
rfoot -12.429 21.336
rtoes -18.19
lfemur 345.423 5.71342 343.629
ltibia 36.4004
lfoot -19.3362 1.29752
ltoes -20.8529
8
root -2.50213 18.8732 9.56305 -175.677 19.4326 180.735
lowerback 5.36075 2.02361 -8.02903
upperback 12.6269 5.09979 -3.74066
thorax 10.3877 2.75118 0.743157
lowerneck -11.3517 1.21107 1.99185
upperneck -7.48038 2.03245 -5.26548
head -0.367652 1.294 -1.93402
rclavicle 1.03368e-014 -3.65764e-014
rhumerus -11.6666 12.7925 -95.8513
rradius 77.2792
rwrist 20.4054
rhand -30.5998 6.74925
rfingers 7.12502
rthumb -3.89664 -23.1949
lclavicle 1.03368e-014 -3.65764e-014
lhumerus -7.20981 -33.0164 92.2097
lradius 45.3496
lwrist 47.521
lhand -32.2775 6.50581
lfingers 7.12502
lthumb -5.51667 36.414
rfemur 504.544 -172.594 -526.992
rtibia 35.1271
rfoot -11.9957 21.4648
rtoes -16.9172
lfemur 344.761 5.82712 343.774
ltibia 36.3584
lfoot -18.9732 1.39695
ltoes -20.7267
9
root -2.52079 18.8963 9.64596 -175.284 19.614 180.917
lowerback 5.38828 2.11244 -8.19506
upperback 12.6168 5.23499 -3.82019
thorax 10.3542 2.81154 0.749688
lowerneck -11.2533 1.17318 2.06863
upperneck -7.918 1.9975 -5.10748
head -0.525936 1.29693 -1.9016
rclavicle 1.66979e-014 1.59028e-014
rhumerus -11.2382 13.3511 -95.9482
rradius 78.0559
rwrist 21.0811
rhand -30.9636 6.8261
rfingers 7.12502
rthumb -4.24797 -23.1113
lclavicle 1.66979e-014 1.59028e-014
lhumerus -6.96546 -32.7776 92.1639
lradius 45.5032
lwrist 49.444
lhand -32.8601 7.35095
lfingers 7.12502
lthumb -6.07916 37.2437
rfemur 504.63 -172.884 -526.852
rtibia 35.4196
rfoot -11.6533 21.5518
rtoes -15.7767
lfemur 344.129 5.93512 343.923
ltibia 36.3119
lfoot -18.6177 1.49043
ltoes -20.707
10
root -2.5388 18.9173 9.72784 -174.899 19.8057 181.097
lowerback 5.36295 2.19876 -8.32863
upperback 12.6216 5.37942 -3.91723
thorax 10.3727 2.87958 0.72427
lowerneck -11.1383 1.13855 2.19281
upperneck -8.35997 1.96343 -4.97033
head -0.687471 1.29868 -1.88516
rclavicle -3.81667e-014 9.85972e-014
rhumerus -10.7374 13.8814 -96.04
rradius 78.8895
rwrist 21.7746
rhand -31.8073 7.32867
rfingers 7.12502
rthumb -5.06265 -22.5908
lclavicle -3.81667e-014 9.85972e-014
lhumerus -6.67552 -32.5973 92.0712
lradius 45.722
lwrist 51.3875
lhand -33.4902 7.99574
lfingers 7.12502
lthumb -6.68742 37.8701
rfemur 504.765 -173.246 -526.743
rtibia 35.7306
rfoot -11.4576 21.6432
rtoes -15.0793
lfemur 343.521 6.00819 344.07
ltibia 36.2538
lfoot -18.2526 1.62297
ltoes -20.5591
11
root -2.55659 18.9383 9.80754 -174.519 20.007 181.304
lowerback 5.29198 2.28644 -8.42139
upperback 12.6329 5.5254 -3.98622
thorax 10.424 2.9473 0.710032
lowerneck -11.0361 1.08948 2.24638
upperneck -8.75082 1.91889 -4.79937
head -0.832152 1.29428 -1.84536
rclavicle -8.90555e-014 -1.43125e-014
rhumerus -10.169 14.4242 -96.0851
rradius 79.686
rwrist 22.5186
rhand -32.6779 7.75746
rfingers 7.12502
rthumb -5.90322 -22.1403
lclavicle -8.90555e-014 -1.43125e-014
lhumerus -6.39776 -32.3982 92.0273
lradius 45.9785
lwrist 53.3552
lhand -34.1011 8.47375
lfingers 7.12502
lthumb -7.27711 38.3286
rfemur 504.935 -173.609 -526.611
rtibia 36.0436
rfoot -11.3148 21.7381
rtoes -14.448
lfemur 342.943 6.05969 344.244
ltibia 36.1901
lfoot -17.9111 1.81212
ltoes -20.4912
12
root -2.57337 18.957 9.88574 -174.218 20.1461 181.446
lowerback 5.2665 2.34685 -8.56492
upperback 12.6475 5.63294 -4.05273
thorax 10.4522 2.99352 0.722089
lowerneck -10.8835 1.0556 2.354
upperneck -9.14007 1.88619 -4.68894
head -0.983021 1.29301 -1.83543
rclavicle -6.67916e-014 -4.6118e-014
rhumerus -9.58677 14.9713 -96.098
rradius 80.5145
rwrist 23.2427
rhand -33.5422 8.21898
rfingers 7.12502
rthumb -6.73768 -21.6538
lclavicle -6.67916e-014 -4.6118e-014
lhumerus -6.12911 -32.239 92.0017
lradius 46.2574
lwrist 55.3263
lhand -34.7917 8.94398
lfingers 7.12502
lthumb -7.94372 38.7747
rfemur 505.199 -173.915 -526.549
rtibia 36.3596
rfoot -11.2335 21.817
rtoes -13.748
lfemur 342.44 6.01856 344.368
ltibia 36.1174
lfoot -17.5691 2.00513
ltoes -20.4466
13
root -2.58925 18.9746 9.96166 -173.968 20.2858 181.61
lowerback 5.27809 2.41584 -8.64756
upperback 12.6579 5.74781 -4.12627
thorax 10.4568 3.05132 0.69099
lowerneck -10.693 1.03515 2.54689
upperneck -9.49034 1.8573 -4.64955
head -1.12647 1.28809 -1.86399
rclavicle -2.38542e-014 4.77083e-014
rhumerus -8.99461 15.4953 -96.1161
rradius 81.3625
rwrist 23.99
rhand -34.478 8.60412
rfingers 7.12502
rthumb -7.64099 -21.2378
lclavicle -2.38542e-014 4.77083e-014
lhumerus -5.90739 -32.1129 91.9924
lradius 46.559
lwrist 57.2812
lhand -35.5639 9.32102
lfingers 7.12502
lthumb -8.68897 39.1222
rfemur 505.558 -174.221 -526.47
rtibia 36.6681
rfoot -11.2725 21.8371
rtoes -13.3022
lfemur 342.022 5.92279 344.522
ltibia 36.0379
lfoot -17.2632 2.24464
ltoes -20.3491
14
root -2.60524 18.9902 10.0354 -173.75 20.4692 181.765
lowerback 5.28736 2.50981 -8.70546
upperback 12.6563 5.89239 -4.20113
thorax 10.4481 3.12582 0.645271
lowerneck -10.4937 1.02293 2.73423
upperneck -9.7632 1.83568 -4.60009
head -1.2469 1.28196 -1.88747
rclavicle 1.11319e-014 -9.54166e-015
rhumerus -8.38106 15.9687 -96.0944
rradius 82.2084
rwrist 24.6931
rhand -35.3757 8.9845
rfingers 7.12502
rthumb -8.50737 -20.8241
lclavicle 1.11319e-014 -9.54166e-015
lhumerus -5.71696 -32.1099 92.0054
lradius 46.8711
lwrist 59.1294
lhand -36.4323 9.58082
lfingers 7.12502
lthumb -9.5269 39.3454
rfemur 505.967 -174.525 -526.405
rtibia 36.9763
rfoot -11.3873 21.8373
rtoes -13.3559
lfemur 341.648 5.84708 344.667
ltibia 35.9521
lfoot -16.9643 2.49261
ltoes -20.1242
15
root -2.62018 19.0057 10.1074 -173.593 20.6649 181.892
lowerback 5.31617 2.59503 -8.80194
upperback 12.6439 6.01514 -4.25564
thorax 10.4116 3.18424 0.639285
lowerneck -10.272 1.02834 2.88566
upperneck -9.96357 1.83364 -4.57698
head -1.34721 1.28188 -1.91215
rclavicle -1.51076e-014 -1.27222e-014
rhumerus -7.75049 16.4863 -96.0507
rradius 82.9991
rwrist 25.4294
rhand -36.3158 9.34439
rfingers 7.12502
rthumb -9.41455 -20.4253
lclavicle -1.51076e-014 -1.27222e-014
lhumerus -5.58123 -32.1109 92.0791
lradius 47.2571
lwrist 60.9997
lhand -37.4183 9.78258
lfingers 7.12502
lthumb -10.4782 39.5014
rfemur 506.474 -174.871 -526.389
rtibia 37.2793
rfoot -11.5872 21.7839
rtoes -13.5273
lfemur 341.353 5.74843 344.79
ltibia 35.862
lfoot -16.6868 2.78086
ltoes -20.0379
